<?xml version="1.0" encoding="utf-8"?>
<!-- Generator: Adobe Illustrator 25.4.1, SVG Export Plug-In . SVG Version: 6.00 Build 0)  -->
<svg version="1.1" id="Layer_1" xmlns="http://www.w3.org/2000/svg" xmlns:xlink="http://www.w3.org/1999/xlink" x="0px" y="0px"
	 viewBox="0 0 599.6 150.2" style="enable-background:new 0 0 599.6 150.2;" xml:space="preserve">
<style type="text/css">
	.st0{fill:#FF5400;}
	.st1{fill:#004F4A;}
	.st2{fill:#3E6469;}
	.st3{fill:#6FB1C8;}
</style>
<g>
	<path class="st0" d="M288,54.9V40.4h-14.7v6.9C277.3,48.4,283,50.6,288,54.9L288,54.9z"/>
	<path class="st1" d="M380,84.5c-4.8-0.9-9.1-2.2-9.1-5.3c0-3.4,3.8-5,7.2-5s6,1.8,7.6,4.4l5-3.4c-2.5-4.7-7.2-6.6-12.3-6.6
		c-6.7,0-13.6,3.7-13.6,10.7c0,7.6,5.9,9,12.8,10.6c3.8,0.9,7.6,1.8,7.8,5.7c0.3,6-4.1,6.7-7.9,6.7c-4.3,0-6.9-1.9-9.2-4.8l-4.8,3.7
		c3.5,5.1,7.9,6.7,14.1,6.7c7.2,0,14.5-4.4,14.5-12.6C391.9,88,386.5,85.8,380,84.5L380,84.5z M341.7,68.2
		c-10.7,0-18.6,8.2-18.6,20.1c0,11.2,7,20.1,18.5,20.1c6.7,0,11.9-2.1,16.3-7.9l-4.5-3.7c-3.2,3.5-6.6,5.6-11.9,5.6
		c-6.6,0-11.4-5.6-11.9-12.2H359v-2.1C359,75.6,352,68.2,341.7,68.2L341.7,68.2z M329.3,84.7c0.9-6.5,5.4-10.7,12-10.7
		s10.9,4.3,11,10.7H329.3z M306.2,75.6L306.2,75.6c-0.1-2.1-0.3-4.1-0.3-6h-5.7c0,2.3,0.3,5.3,0.3,8.7h-0.1v28.9h6v-19
		c0-8.4,3.4-13.5,10.7-13.5c1,0,2.2,0.1,3.2,0.4l0.4-6.2c-0.9-0.3-1.8-0.4-2.5-0.4C312.4,68.7,307.8,71.9,306.2,75.6L306.2,75.6z
		 M251.1,72.2v-0.3c6.9-2.2,11.4-7.3,11.4-14.7c0.1-14.4-12.6-16.9-24.4-16.9h-24.8v66.8h27.3c11.9,0,25.1-4.5,25.1-18.5
		C265.7,80,259.8,73.4,251.1,72.2L251.1,72.2z M228,52.7h10c4.7,0,10,1.5,10,7s-4.7,7.3-9.2,7.3H228V52.7z M241.2,94.7H228V79.5
		h11.2c4.8,0,11.9,1,11.9,7.3C251.1,92.8,245.9,94.7,241.2,94.7z M166.8,40.4l-28.9,66.8h16.3l5.6-14.1h26l5.7,14.1h16.6l-29-66.8
		C179,40.4,166.8,40.4,166.8,40.4z M164.3,80.4l8.1-20.7l8.2,20.7H164.3L164.3,80.4z M273.3,55.3v15.1l-0.1,36.5h14.7l-0.1-35.5
		l0.1-4.3C284.3,60.3,278,57,273.3,55.3L273.3,55.3z M415.8,68.1c-10.7,0-18.6,8.2-18.6,20.1c0,11.2,7,20.1,18.5,20.1
		c6.7,0,11.9-2.1,16.3-7.9l-4.5-3.7c-2.9,3.8-6.5,5.7-11.6,5.7c-6.6,0-11.4-5.6-11.9-12.2h29.5v-2.1
		C433.1,75.4,426.1,68.1,415.8,68.1L415.8,68.1z M403.6,84.7c0.7-6.5,5.3-10.7,11.9-10.7s10.7,4.3,11,10.7H403.6L403.6,84.7z
		 M560.3,68.6c-5.6,0-10,3.1-11.6,6h-0.1V47.3h-6.2v59.9h6v-19c0-8.4,3.5-13.9,11.3-13.9c5.7,0,8.4,3.8,8.4,9.8V107h6V83.4
		C574.1,74.7,569.8,68.6,560.3,68.6L560.3,68.6z M485.9,75.6L485.9,75.6c-0.1-2.1-0.3-4.1-0.3-6h-5.7c0,2.3,0.3,5.3,0.3,8.7h-0.1
		v28.9h6v-19c0-8.4,3.4-13.5,10.7-13.5c1.2,0,2.3,0.1,3.4,0.4l0.4-6.2c-0.9-0.3-1.8-0.4-2.5-0.4C492.1,68.7,487.5,71.9,485.9,75.6
		L485.9,75.6z M521.7,74.4c3.7,0,6.6,1.3,9.1,4.4l4.8-4.3c-3.7-4-8.7-5.7-13.9-5.7c-11.2,0-18.8,8.1-18.8,19.1s7.5,20.1,18.8,20.1
		c5.3,0,10.3-1.8,13.8-5.7L531,98c-2.2,3.1-5.3,4.5-9.2,4.5c-7.3,0-12.2-7.3-12.2-14.7C509.5,80.6,513.7,74.4,521.7,74.4L521.7,74.4
		z M470.4,84.1c0-10.3-4.5-15.4-15.3-15.4c-5.3,0-10.7,1.8-14.4,5.6l3.8,4.3c2.9-2.6,6.9-4,10.9-4c5.7,0,9,2.6,9,7.9v1H462
		c-9,0-22.9,1.9-22.9,13.9c0,7,6.2,10.9,13.5,10.9c5.4-0.1,9.4-2.8,11.9-6.6h0.1c0,1.5,0,3.8,0.4,5.4h5.9c-0.3-1.9-0.6-4.3-0.6-6.3
		L470.4,84.1L470.4,84.1L470.4,84.1z M464.2,90.7c-0.1,5.9-3.8,12.2-10.7,12.2c-4.5,0-7.9-0.6-7.9-5.1c0-4.8,5-9.2,12.6-9.2v-0.1h6
		V90.7L464.2,90.7L464.2,90.7z"/>
	<path class="st0" d="M306.1,131.5H303v-9.8h-2.8v-2.8h8.6v2.8H306L306.1,131.5L306.1,131.5z"/>
	<path class="st0" d="M320.2,131.5h-3.1v-5.1h-3.6v5.1h-3.1v-12.6h3.1v4.7h3.6v-4.7h3.1V131.5z"/>
	<path class="st0" d="M329.4,131.5h-6.7v-12.6h6.7v2.7h-3.7v2h3.4v2.7h-3.4v2.4h3.7V131.5L329.4,131.5z"/>
	<path class="st0" d="M343.9,131.5h-3.1v-9.8H338v-2.8h8.6v2.8h-2.8L343.9,131.5L343.9,131.5z"/>
	<path class="st0" d="M355,131.5h-6.7v-12.6h6.7v2.7h-3.7v2h3.4v2.7h-3.4v2.4h3.7V131.5L355,131.5z"/>
	<path class="st0" d="M362.1,121.5c-0.7,0-1.3,0.3-1.7,1c-0.4,0.7-0.6,1.6-0.6,2.7c0,2.4,0.8,3.6,2.5,3.6c0.5,0,1-0.1,1.5-0.2
		c0.5-0.2,0.9-0.3,1.4-0.6v2.9c-0.9,0.5-2,0.7-3.2,0.7c-1.7,0-3-0.5-3.9-1.7c-0.9-1.1-1.4-2.7-1.4-4.8c0-1.3,0.2-2.4,0.7-3.4
		c0.4-1,1.1-1.8,1.9-2.3s1.8-0.8,2.9-0.8c1.2,0,2.4,0.3,3.5,0.9l-0.9,2.7c-0.4-0.2-0.8-0.4-1.3-0.6
		C363,121.6,362.6,121.5,362.1,121.5L362.1,121.5z"/>
	<path class="st0" d="M377.1,131.5H374v-5.1h-3.6v5.1h-3.1v-12.6h3.1v4.7h3.6v-4.7h3.1V131.5z"/>
	<path class="st0" d="M387,131.5v-12.6h3.1v12.6H387z"/>
	<path class="st0" d="M403.4,131.5h-4l-4.2-8.9h-0.1c0.1,1.4,0.1,2.5,0.1,3.2v5.7h-2.7v-12.6h4l4.1,8.8l0,0
		c-0.1-1.3-0.1-2.3-0.1-3.1v-5.7h2.7L403.4,131.5L403.4,131.5z"/>
	<path class="st0" d="M410.9,131.5h-3.1v-9.8H405v-2.8h8.6v2.8h-2.8L410.9,131.5L410.9,131.5z"/>
	<path class="st0" d="M422,131.5h-6.7v-12.6h6.7v2.7h-3.7v2h3.4v2.7h-3.4v2.4h3.7V131.5L422,131.5z"/>
	<path class="st0" d="M424,131.5v-12.6h3.1v9.9h4.4v2.8L424,131.5L424,131.5z"/>
	<path class="st0" d="M433.3,131.5v-12.6h3.1v9.9h4.4v2.8L433.3,131.5L433.3,131.5z"/>
	<path class="st0" d="M442.5,131.5v-12.6h3.1v12.6H442.5z"/>
	<path class="st0" d="M452.6,124.1h4.9v6.8c-1.3,0.5-2.8,0.8-4.4,0.8c-1.8,0-3.1-0.6-4.1-1.7c-1-1.1-1.4-2.7-1.4-4.8
		c0-2.1,0.5-3.6,1.6-4.8c1-1.1,2.5-1.7,4.4-1.7c0.7,0,1.4,0.1,2,0.2s1.2,0.3,1.7,0.6l-1,2.7c-0.8-0.4-1.7-0.7-2.7-0.7
		c-0.9,0-1.6,0.3-2.1,1s-0.7,1.6-0.7,2.8c0,1.2,0.2,2.1,0.7,2.7c0.4,0.6,1.1,0.9,1.9,0.9c0.5,0,0.9,0,1.3-0.1v-2h-2L452.6,124.1
		L452.6,124.1z"/>
	<path class="st0" d="M466.6,131.5h-6.7v-12.6h6.7v2.7h-3.7v2h3.4v2.7h-3.4v2.4h3.7V131.5L466.6,131.5z"/>
	<path class="st0" d="M479.4,131.5h-4l-4.2-8.9h-0.1c0.1,1.4,0.1,2.5,0.1,3.2v5.7h-2.7v-12.6h4l4.1,8.8l0,0
		c-0.1-1.3-0.1-2.3-0.1-3.1v-5.7h2.7L479.4,131.5L479.4,131.5z"/>
	<path class="st0" d="M486.9,121.5c-0.7,0-1.3,0.3-1.7,1c-0.4,0.7-0.6,1.6-0.6,2.7c0,2.4,0.8,3.6,2.5,3.6c0.5,0,1-0.1,1.5-0.2
		s0.9-0.3,1.4-0.6v2.9c-0.9,0.5-2,0.7-3.2,0.7c-1.7,0-3-0.5-3.9-1.7c-0.9-1.1-1.4-2.7-1.4-4.8c0-1.3,0.2-2.4,0.7-3.4
		c0.4-1,1.1-1.8,1.9-2.3s1.8-0.8,2.9-0.8c1.2,0,2.4,0.3,3.5,0.9l-0.9,2.7c-0.4-0.2-0.8-0.4-1.3-0.6
		C487.9,121.6,487.4,121.5,486.9,121.5L486.9,121.5z"/>
	<path class="st0" d="M499,131.5h-6.7v-12.6h6.7v2.7h-3.7v2h3.4v2.7h-3.4v2.4h3.7V131.5L499,131.5z"/>
	<path class="st0" d="M515.2,131.5h-6.7v-12.6h6.7v2.7h-3.7v2h3.4v2.7h-3.4v2.4h3.7V131.5L515.2,131.5z"/>
	<path class="st0" d="M527.4,131.5h-3.6l-2.2-3.9l-2.2,3.9H516l3.8-6.4l-3.5-6.2h3.4l2.1,3.9l2-3.9h3.5l-3.6,6.4L527.4,131.5
		L527.4,131.5z"/>
	<path class="st0" d="M536.9,122.9c0,1.4-0.4,2.5-1.1,3.3c-0.8,0.8-1.8,1.2-3.2,1.2h-0.9v4.2h-3.1V119h3.9c1.4,0,2.5,0.3,3.2,1
		C536.6,120.6,536.9,121.6,536.9,122.9L536.9,122.9z M531.8,124.5h0.6c0.5,0,0.8-0.1,1.1-0.4s0.4-0.7,0.4-1.2c0-0.9-0.4-1.3-1.3-1.3
		h-0.8V124.5z"/>
	<path class="st0" d="M545.5,131.5h-6.7v-12.6h6.7v2.7h-3.7v2h3.4v2.7h-3.4v2.4h3.7V131.5L545.5,131.5z"/>
	<path class="st0" d="M550.6,126.9v4.6h-3.1v-12.6h3.7c3.1,0,4.6,1.2,4.6,3.7c0,1.5-0.6,2.6-1.9,3.4l3.3,5.5h-3.5l-2.4-4.6H550.6
		L550.6,126.9z M550.6,124.3h0.6c1.1,0,1.6-0.5,1.6-1.6c0-0.9-0.5-1.3-1.6-1.3h-0.6V124.3L550.6,124.3z"/>
	<path class="st0" d="M563.3,131.5h-3.1v-9.8h-2.8v-2.8h8.6v2.8h-2.8L563.3,131.5L563.3,131.5z"/>
	<path class="st0" d="M575.1,127.7c0,0.8-0.2,1.5-0.5,2.1c-0.4,0.6-0.9,1.1-1.5,1.4c-0.7,0.3-1.5,0.5-2.4,0.5
		c-0.8,0-1.4-0.1-1.9-0.2s-1-0.3-1.6-0.6v-3c0.6,0.3,1.2,0.6,1.8,0.8s1.2,0.3,1.7,0.3s0.8-0.1,1-0.3s0.3-0.4,0.3-0.7
		c0-0.2,0-0.3-0.1-0.5c-0.1-0.1-0.2-0.3-0.4-0.4s-0.7-0.4-1.5-0.8c-0.7-0.4-1.3-0.7-1.7-1.1s-0.6-0.8-0.8-1.2
		c-0.2-0.5-0.3-1-0.3-1.6c0-1.2,0.4-2.1,1.1-2.7c0.8-0.6,1.8-1,3.1-1c1.2,0,2.4,0.3,3.6,0.9l-0.9,2.6c-1.1-0.5-2-0.8-2.8-0.8
		c-0.4,0-0.7,0.1-0.9,0.2s-0.3,0.4-0.3,0.6c0,0.3,0.1,0.5,0.3,0.7s0.9,0.6,1.9,1.1s1.7,1,2,1.6C574.9,126.1,575.1,126.8,575.1,127.7
		L575.1,127.7z"/>
	<path class="st1" d="M586.7,102.7c0,2.5-2,4.4-4.5,4.4s-4.5-2-4.5-4.4s2-4.4,4.6-4.4S586.7,100.2,586.7,102.7z M578.7,102.7
		c0,2,1.5,3.5,3.4,3.5s3.4-1.6,3.4-3.5s-1.4-3.5-3.4-3.5S578.7,100.8,578.7,102.7z M581.5,105h-1v-4.4c0.4-0.1,1-0.1,1.7-0.1
		c0.8,0,1.2,0.1,1.5,0.4c0.3,0.2,0.5,0.5,0.5,0.9c0,0.5-0.4,0.9-0.9,1v0.1c0.4,0.1,0.6,0.5,0.8,1.1c0.1,0.7,0.2,0.9,0.3,1.1h-1.1
		c-0.1-0.2-0.2-0.5-0.4-1.1c-0.1-0.5-0.4-0.7-0.9-0.7h-0.5L581.5,105L581.5,105z M581.5,102.5h0.5c0.6,0,1-0.2,1-0.6
		s-0.3-0.7-0.9-0.7c-0.3,0-0.5,0-0.6,0.1V102.5z"/>
	<path class="st0" d="M580.5,122.6c0,0.4-0.2,0.8-0.5,1c-0.3,0.3-0.7,0.4-1.3,0.4c-0.5,0-1-0.1-1.3-0.3v-0.9
		c0.3,0.1,0.6,0.2,0.8,0.3c0.2,0.1,0.4,0.1,0.6,0.1c0.2,0,0.4,0,0.5-0.1s0.2-0.2,0.2-0.4c0-0.1,0-0.2-0.1-0.3
		c-0.1-0.1-0.1-0.1-0.2-0.2c-0.1-0.1-0.3-0.2-0.6-0.3c-0.3-0.1-0.5-0.3-0.6-0.4s-0.3-0.3-0.3-0.4c-0.1-0.2-0.1-0.4-0.1-0.6
		c0-0.4,0.1-0.8,0.4-1c0.3-0.2,0.7-0.4,1.2-0.4c0.3,0,0.5,0,0.7,0.1s0.5,0.1,0.7,0.3l-0.3,0.8c-0.3-0.1-0.5-0.2-0.6-0.2
		s-0.3-0.1-0.5-0.1s-0.3,0-0.4,0.1s-0.1,0.2-0.1,0.3c0,0.1,0,0.2,0.1,0.2c0,0.1,0.1,0.1,0.2,0.2c0.1,0.1,0.3,0.2,0.6,0.3
		c0.4,0.2,0.8,0.4,0.9,0.6C580.4,122,580.5,122.2,580.5,122.6L580.5,122.6z"/>
	<path class="st0" d="M583.3,123.9l-1.1-3.7l0,0c0,0.8,0.1,1.3,0.1,1.5v2.2h-0.9v-4.8h1.4l1.1,3.6l0,0l1.2-3.6h1.4v4.8h-0.9v-2.2
		c0-0.1,0-0.2,0-0.4c0-0.1,0-0.5,0-1.1l0,0l-1.2,3.7H583.3L583.3,123.9z"/>
	<path class="st2" d="M16.9,119.9l37.7-97.4c2.4-6.3,9.5-9.4,15.8-7l0,0c6.3,2.4,9.4,9.5,7,15.8l-37.7,97.4c-2.4,6.3-9.5,9.4-15.8,7
		l0,0C17.6,133.3,14.5,126.2,16.9,119.9z"/>
	<path class="st3" d="M92.4,128.4L54.7,31.1c-2.4-6.3,0.7-13.4,7-15.8l0,0c6.3-2.4,13.4,0.7,15.8,7l37.7,97.4
		c2.4,6.3-0.7,13.4-7,15.8l0,0C101.9,137.9,94.8,134.7,92.4,128.4z"/>
	<path class="st0" d="M66.2,61.4c0,0,12.4-31.6,12.6-33.1s0.3-14-12.8-13.8c-10.9,0.2-12.4,9.7-12.3,13.3
		C53.9,31.3,66.2,61.4,66.2,61.4L66.2,61.4z"/>
</g>
</svg>
